<?xml version="1.0" encoding="UTF-8"?>
<svg xmlns="http://www.w3.org/2000/svg" xmlns:xlink="http://www.w3.org/1999/xlink" width="32pt" height="32pt" viewBox="0 0 32 32" version="1.1" transform="scale(-.7, .7)">
<g id="surface1">
<path style=" stroke:none;fill-rule:nonzero;fill:rgb(89.411765%,35.294118%,43.137255%);fill-opacity:1;" d="M 13.863281 8.71875 C 13.679688 8.414062 13.339844 8.242188 12.984375 8.265625 L 5.367188 8.855469 C 4.597656 8.914062 3.910156 9.320312 3.480469 9.964844 L 0.285156 14.800781 C -0.0390625 15.289062 -0.0898438 15.902344 0.148438 16.4375 C 0.386719 16.976562 0.871094 17.347656 1.453125 17.4375 L 7.628906 18.394531 C 7.679688 18.402344 7.726562 18.40625 7.773438 18.40625 C 8.089844 18.40625 8.390625 18.246094 8.5625 17.976562 L 13.847656 9.707031 C 14.039062 9.40625 14.042969 9.027344 13.863281 8.71875 Z M 13.863281 8.71875 "/>
<path style=" stroke:none;fill-rule:nonzero;fill:rgb(84.705882%,18.039216%,26.666667%);fill-opacity:1;" d="M 23.28125 18.136719 C 22.972656 17.953125 22.59375 17.960938 22.292969 18.152344 L 14.023438 23.4375 C 13.710938 23.636719 13.546875 24.003906 13.605469 24.371094 L 14.5625 30.546875 C 14.648438 31.128906 15.023438 31.613281 15.5625 31.851562 C 15.785156 31.953125 16.019531 32 16.253906 32 C 16.585938 32 16.914062 31.902344 17.199219 31.714844 L 22.035156 28.519531 C 22.679688 28.089844 23.085938 27.402344 23.144531 26.632812 L 23.734375 19.015625 C 23.761719 18.660156 23.585938 18.320312 23.28125 18.136719 Z M 23.28125 18.136719 "/>
<path style=" stroke:none;fill-rule:nonzero;fill:rgb(94.509804%,94.509804%,98.431373%);fill-opacity:1;" d="M 12.054688 25.765625 C 12.425781 26.140625 12.957031 26.316406 13.476562 26.226562 C 21.109375 24.953125 27.148438 18.632812 29.449219 14.1875 C 32 9.25 32.097656 4.035156 31.960938 1.589844 C 31.917969 0.75 31.25 0.0820312 30.410156 0.0390625 C 27.964844 -0.0976562 22.75 0 17.8125 2.550781 C 13.367188 4.851562 7.046875 10.890625 5.773438 18.523438 C 5.683594 19.042969 5.859375 19.574219 6.234375 19.945312 Z M 12.054688 25.765625 "/>
<path style=" stroke:none;fill-rule:nonzero;fill:rgb(84.313725%,83.921569%,98.431373%);fill-opacity:1;" d="M 31.484375 0.515625 L 9.144531 22.855469 L 12.054688 25.765625 C 12.425781 26.140625 12.957031 26.316406 13.476562 26.226562 C 21.109375 24.953125 27.148438 18.632812 29.449219 14.1875 C 32 9.25 32.097656 4.035156 31.960938 1.589844 C 31.941406 1.171875 31.761719 0.792969 31.484375 0.515625 Z M 31.484375 0.515625 "/>
<path style=" stroke:none;fill-rule:nonzero;fill:rgb(27.45098%,38.431373%,53.333333%);fill-opacity:1;" d="M 21.921875 14.765625 C 20.71875 14.765625 19.519531 14.308594 18.605469 13.394531 C 17.71875 12.507812 17.234375 11.332031 17.234375 10.078125 C 17.234375 8.828125 17.71875 7.648438 18.605469 6.765625 C 20.433594 4.9375 23.40625 4.9375 25.234375 6.765625 C 26.121094 7.648438 26.609375 8.828125 26.609375 10.078125 C 26.609375 11.332031 26.121094 12.507812 25.234375 13.394531 C 24.320312 14.308594 23.121094 14.765625 21.921875 14.765625 Z M 19.269531 7.429688 Z M 19.269531 7.429688 "/>
<path style=" stroke:none;fill-rule:nonzero;fill:rgb(27.45098%,38.431373%,53.333333%);fill-opacity:1;" d="M 5.773438 18.523438 C 5.683594 19.042969 5.859375 19.574219 6.234375 19.945312 L 12.054688 25.765625 C 12.425781 26.140625 12.957031 26.316406 13.476562 26.226562 C 15.140625 25.949219 16.722656 25.433594 18.210938 24.75 L 7.25 13.789062 C 6.566406 15.277344 6.050781 16.863281 5.773438 18.523438 Z M 5.773438 18.523438 "/>
<path style=" stroke:none;fill-rule:nonzero;fill:rgb(99.215686%,70.588235%,22.745098%);fill-opacity:1;" d="M 0.957031 26.371094 C 1.195312 26.371094 1.4375 26.28125 1.621094 26.097656 L 4.679688 23.035156 C 5.046875 22.667969 5.046875 22.074219 4.679688 21.710938 C 4.3125 21.34375 3.71875 21.34375 3.355469 21.710938 L 0.292969 24.769531 C -0.0742188 25.136719 -0.0742188 25.730469 0.292969 26.097656 C 0.476562 26.28125 0.714844 26.371094 0.957031 26.371094 Z M 0.957031 26.371094 "/>
<path style=" stroke:none;fill-rule:nonzero;fill:rgb(99.215686%,70.588235%,22.745098%);fill-opacity:1;" d="M 7.484375 24.515625 C 7.117188 24.148438 6.527344 24.148438 6.160156 24.515625 L 0.273438 30.398438 C -0.0898438 30.765625 -0.0898438 31.359375 0.273438 31.726562 C 0.457031 31.910156 0.699219 32 0.9375 32 C 1.175781 32 1.417969 31.90625 1.601562 31.726562 L 7.484375 25.839844 C 7.851562 25.472656 7.851562 24.882812 7.484375 24.515625 Z M 7.484375 24.515625 "/>
<path style=" stroke:none;fill-rule:nonzero;fill:rgb(96.078431%,47.843137%,12.941176%);fill-opacity:1;" d="M 10.289062 27.320312 C 9.925781 26.953125 9.332031 26.953125 8.964844 27.320312 L 5.902344 30.378906 C 5.539062 30.746094 5.539062 31.339844 5.902344 31.707031 C 6.085938 31.890625 6.328125 31.980469 6.566406 31.980469 C 6.804688 31.980469 7.046875 31.890625 7.230469 31.707031 L 10.289062 28.644531 C 10.65625 28.28125 10.65625 27.6875 10.289062 27.320312 Z M 10.289062 27.320312 "/>
<path style=" stroke:none;fill-rule:nonzero;fill:rgb(96.078431%,47.843137%,12.941176%);fill-opacity:1;" d="M 0.273438 31.726562 C 0.457031 31.910156 0.699219 32 0.9375 32 C 1.175781 32 1.417969 31.90625 1.601562 31.726562 L 7.484375 25.839844 C 7.851562 25.472656 7.851562 24.882812 7.484375 24.515625 Z M 0.273438 31.726562 "/>
<path style=" stroke:none;fill-rule:nonzero;fill:rgb(20.784314%,29.019608%,40.392157%);fill-opacity:1;" d="M 9.144531 22.855469 L 12.054688 25.765625 C 12.425781 26.140625 12.957031 26.316406 13.476562 26.226562 C 15.140625 25.949219 16.722656 25.433594 18.210938 24.75 L 12.730469 19.269531 Z M 9.144531 22.855469 "/>
<path style=" stroke:none;fill-rule:nonzero;fill:rgb(20.784314%,29.019608%,40.392157%);fill-opacity:1;" d="M 18.605469 13.394531 C 19.519531 14.308594 20.71875 14.765625 21.921875 14.765625 C 23.121094 14.765625 24.320312 14.308594 25.234375 13.394531 C 26.121094 12.507812 26.609375 11.332031 26.609375 10.078125 C 26.609375 8.828125 26.121094 7.648438 25.234375 6.765625 Z M 18.605469 13.394531 "/>
<path style=" stroke:none;fill-rule:nonzero;fill:rgb(29.411765%,74.509804%,99.215686%);fill-opacity:1;" d="M 21.921875 7.269531 C 21.199219 7.269531 20.480469 7.542969 19.933594 8.089844 C 19.402344 8.621094 19.109375 9.328125 19.109375 10.078125 C 19.109375 10.832031 19.402344 11.535156 19.933594 12.066406 C 21.027344 13.164062 22.8125 13.164062 23.910156 12.066406 C 24.441406 11.535156 24.734375 10.832031 24.734375 10.078125 C 24.734375 9.328125 24.441406 8.621094 23.910156 8.089844 C 23.359375 7.542969 22.640625 7.269531 21.921875 7.269531 Z M 21.921875 7.269531 "/>
<path style=" stroke:none;fill-rule:nonzero;fill:rgb(1.960784%,56.470588%,98.431373%);fill-opacity:1;" d="M 23.910156 8.089844 L 19.933594 12.066406 C 21.027344 13.164062 22.8125 13.164062 23.910156 12.066406 C 24.441406 11.535156 24.734375 10.832031 24.734375 10.078125 C 24.734375 9.328125 24.441406 8.621094 23.910156 8.089844 Z M 23.910156 8.089844 "/>
</g>
</svg>
