{
    "asset" : {
        "generator" : "Khronos glTF Blender I/O v1.1.46",
        "version" : "2.0"
    },
    "scene" : 0,
    "scenes" : [
        {
            "name" : "Scene",
            "nodes" : [
                0
            ]
        }
    ],
    "nodes" : [
        {
            "mesh" : 0,
            "name" : "rocket",
            "scale" : [
                0.5687229037284851,
                0.12344793975353241,
                0.5687229037284851
            ],
            "translation" : [
                0,
                -0.9494815468788147,
                0
            ]
        }
    ],
    "materials" : [
        {
            "doubleSided" : true,
            "emissiveFactor" : [
                0.8000000715255737,
                0.0029106924775987864,
                0
            ],
            "name" : "BLACK.001",
            "pbrMetallicRoughness" : {}
        },
        {
            "doubleSided" : true,
            "emissiveFactor" : [
                0.01053144782781601,
                0.007548682391643524,
                0.01874442957341671
            ],
            "name" : "BLACK",
            "pbrMetallicRoughness" : {}
        },
        {
            "doubleSided" : true,
            "emissiveFactor" : [
                0.11886496841907501,
                0.12006577849388123,
                0.12371030449867249
            ],
            "name" : "Material",
            "pbrMetallicRoughness" : {}
        },
        {
            "doubleSided" : true,
            "emissiveFactor" : [
                1,
                1,
                1
            ],
            "name" : "Material.004",
            "pbrMetallicRoughness" : {}
        },
        {
            "doubleSided" : true,
            "emissiveFactor" : [
                0,
                0.3960488438606262,
                0.7484014630317688
            ],
            "name" : "Material.002",
            "pbrMetallicRoughness" : {}
        },
        {
            "doubleSided" : true,
            "emissiveFactor" : [
                0,
                0,
                0
            ],
            "name" : "Material.005",
            "pbrMetallicRoughness" : {}
        }
    ],
    "meshes" : [
        {
            "name" : "Cylinder.015",
            "primitives" : [
                {
                    "attributes" : {
                        "POSITION" : 0,
                        "NORMAL" : 1,
                        "TEXCOORD_0" : 2
                    },
                    "indices" : 3,
                    "material" : 0
                },
                {
                    "attributes" : {
                        "POSITION" : 4,
                        "NORMAL" : 5,
                        "TEXCOORD_0" : 6
                    },
                    "indices" : 7,
                    "material" : 1
                },
                {
                    "attributes" : {
                        "POSITION" : 8,
                        "NORMAL" : 9,
                        "TEXCOORD_0" : 10
                    },
                    "indices" : 11,
                    "material" : 2
                },
                {
                    "attributes" : {
                        "POSITION" : 12,
                        "NORMAL" : 13,
                        "TEXCOORD_0" : 14
                    },
                    "indices" : 15,
                    "material" : 3
                },
                {
                    "attributes" : {
                        "POSITION" : 16,
                        "NORMAL" : 17,
                        "TEXCOORD_0" : 18
                    },
                    "indices" : 19,
                    "material" : 4
                },
                {
                    "attributes" : {
                        "POSITION" : 20,
                        "NORMAL" : 21,
                        "TEXCOORD_0" : 22
                    },
                    "indices" : 23,
                    "material" : 5
                }
            ]
        }
    ],
    "accessors" : [
        {
            "bufferView" : 0,
            "componentType" : 5126,
            "count" : 306,
            "max" : [
                3.271533489227295,
                31.64006996154785,
                2.105452299118042
            ],
            "min" : [
                -3.2016921043395996,
                -6.330538272857666,
                -3.6003470420837402
            ],
            "type" : "VEC3"
        },
        {
            "bufferView" : 1,
            "componentType" : 5126,
            "count" : 306,
            "type" : "VEC3"
        },
        {
            "bufferView" : 2,
            "componentType" : 5126,
            "count" : 306,
            "type" : "VEC2"
        },
        {
            "bufferView" : 3,
            "componentType" : 5123,
            "count" : 978,
            "type" : "SCALAR"
        },
        {
            "bufferView" : 4,
            "componentType" : 5126,
            "count" : 466,
            "max" : [
                0.8766357898712158,
                26.664581298828125,
                2.52762508392334
            ],
            "min" : [
                -0.8766357898712158,
                18.064769744873047,
                0.1447087526321411
            ],
            "type" : "VEC3"
        },
        {
            "bufferView" : 5,
            "componentType" : 5126,
            "count" : 466,
            "type" : "VEC3"
        },
        {
            "bufferView" : 6,
            "componentType" : 5126,
            "count" : 466,
            "type" : "VEC2"
        },
        {
            "bufferView" : 7,
            "componentType" : 5123,
            "count" : 2199,
            "type" : "SCALAR"
        },
        {
            "bufferView" : 8,
            "componentType" : 5126,
            "count" : 192,
            "max" : [
                0.5504691004753113,
                25.411067962646484,
                2.2198855876922607
            ],
            "min" : [
                -0.6358694434165955,
                19.950576782226562,
                2.087249994277954
            ],
            "type" : "VEC3"
        },
        {
            "bufferView" : 9,
            "componentType" : 5126,
            "count" : 192,
            "type" : "VEC3"
        },
        {
            "bufferView" : 10,
            "componentType" : 5126,
            "count" : 192,
            "type" : "VEC2"
        },
        {
            "bufferView" : 11,
            "componentType" : 5123,
            "count" : 372,
            "type" : "SCALAR"
        },
        {
            "bufferView" : 12,
            "componentType" : 5126,
            "count" : 577,
            "max" : [
                2.105452537536621,
                31.19515609741211,
                2.105452537536621
            ],
            "min" : [
                -2.105452537536621,
                -1.7499973773956299,
                -2.105452537536621
            ],
            "type" : "VEC3"
        },
        {
            "bufferView" : 13,
            "componentType" : 5126,
            "count" : 577,
            "type" : "VEC3"
        },
        {
            "bufferView" : 14,
            "componentType" : 5126,
            "count" : 577,
            "type" : "VEC2"
        },
        {
            "bufferView" : 15,
            "componentType" : 5123,
            "count" : 1575,
            "type" : "SCALAR"
        },
        {
            "bufferView" : 16,
            "componentType" : 5126,
            "count" : 251,
            "max" : [
                2.1026628017425537,
                43.05256652832031,
                2.1026628017425537
            ],
            "min" : [
                -2.1026628017425537,
                -0.3994479179382324,
                -2.1026628017425537
            ],
            "type" : "VEC3"
        },
        {
            "bufferView" : 17,
            "componentType" : 5126,
            "count" : 251,
            "type" : "VEC3"
        },
        {
            "bufferView" : 18,
            "componentType" : 5126,
            "count" : 251,
            "type" : "VEC2"
        },
        {
            "bufferView" : 19,
            "componentType" : 5123,
            "count" : 1032,
            "type" : "SCALAR"
        },
        {
            "bufferView" : 20,
            "componentType" : 5126,
            "count" : 1030,
            "max" : [
                1.3495395183563232,
                1.0115180015563965,
                1.3495395183563232
            ],
            "min" : [
                -1.3495395183563232,
                -2.4743950366973877,
                -1.3495395183563232
            ],
            "type" : "VEC3"
        },
        {
            "bufferView" : 21,
            "componentType" : 5126,
            "count" : 1030,
            "type" : "VEC3"
        },
        {
            "bufferView" : 22,
            "componentType" : 5126,
            "count" : 1030,
            "type" : "VEC2"
        },
        {
            "bufferView" : 23,
            "componentType" : 5123,
            "count" : 2193,
            "type" : "SCALAR"
        }
    ],
    "bufferViews" : [
        {
            "buffer" : 0,
            "byteLength" : 3672,
            "byteOffset" : 0
        },
        {
            "buffer" : 0,
            "byteLength" : 3672,
            "byteOffset" : 3672
        },
        {
            "buffer" : 0,
            "byteLength" : 2448,
            "byteOffset" : 7344
        },
        {
            "buffer" : 0,
            "byteLength" : 1956,
            "byteOffset" : 9792
        },
        {
            "buffer" : 0,
            "byteLength" : 5592,
            "byteOffset" : 11748
        },
        {
            "buffer" : 0,
            "byteLength" : 5592,
            "byteOffset" : 17340
        },
        {
            "buffer" : 0,
            "byteLength" : 3728,
            "byteOffset" : 22932
        },
        {
            "buffer" : 0,
            "byteLength" : 4398,
            "byteOffset" : 26660
        },
        {
            "buffer" : 0,
            "byteLength" : 2304,
            "byteOffset" : 31060
        },
        {
            "buffer" : 0,
            "byteLength" : 2304,
            "byteOffset" : 33364
        },
        {
            "buffer" : 0,
            "byteLength" : 1536,
            "byteOffset" : 35668
        },
        {
            "buffer" : 0,
            "byteLength" : 744,
            "byteOffset" : 37204
        },
        {
            "buffer" : 0,
            "byteLength" : 6924,
            "byteOffset" : 37948
        },
        {
            "buffer" : 0,
            "byteLength" : 6924,
            "byteOffset" : 44872
        },
        {
            "buffer" : 0,
            "byteLength" : 4616,
            "byteOffset" : 51796
        },
        {
            "buffer" : 0,
            "byteLength" : 3150,
            "byteOffset" : 56412
        },
        {
            "buffer" : 0,
            "byteLength" : 3012,
            "byteOffset" : 59564
        },
        {
            "buffer" : 0,
            "byteLength" : 3012,
            "byteOffset" : 62576
        },
        {
            "buffer" : 0,
            "byteLength" : 2008,
            "byteOffset" : 65588
        },
        {
            "buffer" : 0,
            "byteLength" : 2064,
            "byteOffset" : 67596
        },
        {
            "buffer" : 0,
            "byteLength" : 12360,
            "byteOffset" : 69660
        },
        {
            "buffer" : 0,
            "byteLength" : 12360,
            "byteOffset" : 82020
        },
        {
            "buffer" : 0,
            "byteLength" : 8240,
            "byteOffset" : 94380
        },
        {
            "buffer" : 0,
            "byteLength" : 4386,
            "byteOffset" : 102620
        }
    ],
    "buffers" : [
        {
            "byteLength" : 107008,
            "uri" : "rocket.bin"
        }
    ]
}
