<svg xmlns="http://www.w3.org/2000/svg" data-name="Layer 1" width="512" height="512" style=""><rect id="backgroundrect" width="100%" height="100%" x="0" y="0" fill="none" stroke="none"/><g class="currentLayer" style=""><title>Layer 1</title><path d="M444,414.589a5.836,5.836,0,0,0,.7-5.433l-13.49-36.282A5.968,5.968,0,0,0,425.588,369H86.412a6.005,6.005,0,0,0-5.625,3.915L67.3,409.154A5.782,5.782,0,0,0,72.922,417H439.078A5.852,5.852,0,0,0,444,414.589ZM81.551,405l9.032-24H421.417l9.032,24Z" id="svg_1" class="selected"/><path d="M608.5780334472656,52.91900811767579 a6,6 0 0 0 -6,6 v3.2 a6,6 0 0 0 12,0 v-3.2 A6,6 0 0 0 608.5780334472656,52.91900811767579 z" id="svg_3" class=""/><path d="M256,54.541a6,6,0,0,0,6-6v-25.3a6,6,0,0,0-12,0v25.3A6,6,0,0,0,256,54.541Z" id="svg_4" class="selected"/><path d="M325.242,80.584a5.978,5.978,0,0,0,4.241-1.756l19.753-19.74a6,6,0,1,0-8.483-8.488L321,70.34a6,6,0,0,0,4.241,10.244Z" id="svg_7" class="selected"/><path d="M182.517,78.828A6,6,0,0,0,191,70.34L171.247,50.6a6,6,0,1,0-8.483,8.488Z" id="svg_8" class="selected"/><path d="M664.0693664550781,-18.79308410644532 a6,6 0 0 0 6,-6 A44.875,44.875 0 0 1 683.4693664550781,-56.90108410644531 a45.609,45.609 0 0 1 9.008,-6.94 a6,6 0 0 0 -6.071,-10.351 a57.656,57.656 0 0 0 -11.381,8.764 A56.793,56.793 0 0 0 658.0693664550781,-24.79308410644532 A6,6 0 0 0 664.0693664550781,-18.79308410644532 z" id="svg_9" class="" transform="translate(0.5780346989631653,0) "/><path d="M644.6537658691407,-23.25435021972656 a6.045,6.045 0 0 0 1.225,-0.126 a45.667,45.667 0 0 1 5.484,-0.792 a6,6 0 1 0 -0.99,-11.959 a57.616,57.616 0 0 0 -6.931,1 A6,6 0 0 0 644.6537658691407,-23.25435021972656 z" id="svg_10" class=""/><path d="M500.492,460h0L456.1,358.92a22.707,22.707,0,0,0-3.072-5.305,23.6,23.6,0,0,0,8.976-18.3V108.265A26.582,26.582,0,0,0,435.556,82H299.6a72.385,72.385,0,0,0-87.27,0H76.444A26.582,26.582,0,0,0,50,108.265V335.313a23.683,23.683,0,0,0,9.536,18.774,23.116,23.116,0,0,0-2.767,4.738L11.479,460.083l.025,0a5.951,5.951,0,0,0-.5,2.45v8.673A23.79,23.79,0,0,0,34.559,495H477.441A23.79,23.79,0,0,0,501,471.208v-8.673A7.691,7.691,0,0,0,500.492,460ZM213.41,96.892a60.479,60.479,0,1,1,83.857,87.152A53.893,53.893,0,0,0,280,223.333V224H262V174.188a10.268,10.268,0,0,0,3.843.717c5.736,0,8.548-4.182,10.059-6.429.24-.356.566-.842.818-1.167A6,6,0,0,0,276,155.351c-5.735,0-8.547,4.182-10.058,6.429l-.1.149c-.034-.052-.068-.1-.1-.149-1.511-2.247-4.323-6.429-10.058-6.429s-8.546,4.183-10.057,6.43c-.03.047-.063.094-.1.144l-.1-.144c-1.51-2.247-4.322-6.43-10.057-6.43a6,6,0,0,0-.719,11.958c.252.325.578.81.817,1.166,1.51,2.247,4.322,6.43,10.057,6.43a10.127,10.127,0,0,0,4.468-.994V224H232v-.667a52.941,52.941,0,0,0-16.947-38.992,60.417,60.417,0,0,1-1.643-87.449ZM224.1,255a2.01,2.01,0,0,1,0-4H287.9a1.984,1.984,0,0,1,1.808,2,2.118,2.118,0,0,1-1.96,2Zm62.4,13.5c0,1-.811,1.5-1.807,1.5H227.3c-1,0-1.807-.5-1.807-1.5s.811-1.5,1.807-1.5H284.7C285.693,267,286.5,267.5,286.5,268.5ZM220.957,239c-1,0-1.834-.5-1.834-1.5s.785-1.5,1.782-1.5H291.1c1,0,1.808.5,1.808,1.5s-.811,1.5-1.808,1.5ZM62,108.265A14.307,14.307,0,0,1,76.265,94H199.848a72.38,72.38,0,0,0-7.448,11H94.264A17.264,17.264,0,0,0,77,122.264V150a6,6,0,0,0,6,6h0a6,6,0,0,0,6-6V123.009A6.027,6.027,0,0,1,95.009,117h92.162a72.5,72.5,0,0,0,19.768,76.182A40.915,40.915,0,0,1,220,223.333v.3A13.949,13.949,0,0,0,207.057,237.4a13.775,13.775,0,0,0,4.4,10.057,13.758,13.758,0,0,0,3.214,15.616,12.7,12.7,0,0,0-1.173,5.557A13.784,13.784,0,0,0,227.38,282h57.1c7.666,0,14.213-6.275,14.017-13.938a13.248,13.248,0,0,0-1.173-5.1,13.6,13.6,0,0,0,3.2-15.534,13.766,13.766,0,0,0,4.417-10.044A13.936,13.936,0,0,0,292,223.631v-.348a41.823,41.823,0,0,1,13.444-30.455A72.456,72.456,0,0,0,324.821,117h92.915A5.264,5.264,0,0,1,423,122.264V318.042A5.975,5.975,0,0,1,417.042,324H94.958A5.975,5.975,0,0,1,89,318.042V192a6,6,0,0,0-6-6h0a6,6,0,0,0-6,6V318.042A18.011,18.011,0,0,0,94.958,336H417.736A17.264,17.264,0,0,0,435,318.736V122.264A17.264,17.264,0,0,0,417.736,105H319.569a72.521,72.521,0,0,0-7.478-11H435.556A14.487,14.487,0,0,1,450,108.444V335.313A11.721,11.721,0,0,1,438.313,347H73.917A11.952,11.952,0,0,1,62,335.083Zm5.811,255.7a11.684,11.684,0,0,1,4.243-5l368.667-.187a12.068,12.068,0,0,1,4.386,5.293L485.813,457h-158.1l-8.206-24.843a6.038,6.038,0,0,0-5.7-4.157H198.186a6.038,6.038,0,0,0-5.7,4.157L184.284,457H26.26ZM315.076,457H196.924l5.6-17H309.479ZM489,471.208A11.778,11.778,0,0,1,477.441,483H34.559A11.778,11.778,0,0,1,23,471.208V469H489Z" id="svg_11" class="selected"/></g></svg>